<?xml version="1.0" encoding="UTF-8"?>
<svg version="1.1" xmlns="http://www.w3.org/2000/svg" width="500" height="150">
<path d="M0 0 C4.96622349 -0.02465098 9.93241166 -0.04283649 14.89868164 -0.05493164 C16.58944316 -0.0599719 18.28020029 -0.06680405 19.97094727 -0.07543945 C22.39600707 -0.08751857 24.82100944 -0.09323123 27.24609375 -0.09765625 C28.38672523 -0.10539818 28.38672523 -0.10539818 29.55039978 -0.11329651 C31.3673257 -0.11349238 33.18413127 -0.06197277 35 0 C36.54289682 1.54289682 36.32582062 3.13093418 36.54077148 5.27832031 C36.63434433 6.1914801 36.72791718 7.10463989 36.82432556 8.04547119 C36.97122581 9.54663483 36.97122581 9.54663483 37.12109375 11.078125 C37.22591568 12.11451111 37.33073761 13.15089722 37.43873596 14.21868896 C37.77580366 17.56205765 38.10666199 20.90600971 38.4375 24.25 C38.65650795 26.42842497 38.87590464 28.6068109 39.09570312 30.78515625 C40.44255442 44.18600574 41.7230499 57.592024 43 71 C43.33 52.85 43.66 34.7 44 16 C51.26 16 58.52 16 66 16 C66.495 16.99 66.495 16.99 67 18 C67.7425 17.505 68.485 17.01 69.25 16.5 C74.66591606 13.81133858 81.4631797 13.99758569 87.19140625 15.62109375 C92.32121814 18.1139829 93.91687792 22.00050701 96 27 C96.33 23.37 96.66 19.74 97 16 C104.59 16 112.18 16 120 16 C120.33 16.66 120.66 17.32 121 18 C121.70253906 17.51273438 122.40507812 17.02546875 123.12890625 16.5234375 C127.90897327 13.98707541 132.71709135 14.47027745 138 15 C142.30411529 16.51021589 144.59453362 18.12452639 147 22 C147.33 21.01 147.66 20.02 148 19 C149.98 19 151.96 19 154 19 C153.98839844 17.71222656 153.97679687 16.42445312 153.96484375 15.09765625 C153.9554673 13.41927228 153.94636695 11.74088674 153.9375 10.0625 C153.92912109 9.21236328 153.92074219 8.36222656 153.91210938 7.48632812 C153.90888672 6.67744141 153.90566406 5.86855469 153.90234375 5.03515625 C153.89710693 4.2862915 153.89187012 3.53742676 153.88647461 2.76586914 C154 1 154 1 155 0 C156.47652664 -0.09880797 157.95767236 -0.13079245 159.4375 -0.1328125 C160.33210937 -0.13410156 161.22671875 -0.13539062 162.1484375 -0.13671875 C163.08945313 -0.13285156 164.03046875 -0.12898438 165 -0.125 C166.41152344 -0.13080078 166.41152344 -0.13080078 167.8515625 -0.13671875 C169.19347656 -0.13478516 169.19347656 -0.13478516 170.5625 -0.1328125 C171.38878906 -0.13168457 172.21507812 -0.13055664 173.06640625 -0.12939453 C175 0 175 0 176 1 C176.08631874 2.34267413 176.10706473 3.68974322 176.09765625 5.03515625 C176.09443359 5.84404297 176.09121094 6.65292969 176.08789062 7.48632812 C176.07951172 8.33646484 176.07113281 9.18660156 176.0625 10.0625 C176.05798828 10.91650391 176.05347656 11.77050781 176.04882812 12.65039062 C176.03700373 14.76695663 176.01906769 16.88348685 176 19 C177.65 19 179.3 19 181 19 C181 12.73 181 6.46 181 0 C188.26 0 195.52 0 203 0 C203.33 6.6 203.66 13.2 204 20 C205.98 18.35 207.96 16.7 210 15 C215.2978015 13.87622392 221.08957451 14.12319576 226 16.5625 C230.32737105 20.07848897 232.22849115 23.68547345 234 29 C234.09065412 31.41839804 234.12611542 33.80726283 234.11352539 36.2253418 C234.11367142 36.95729767 234.11381744 37.68925354 234.1139679 38.44338989 C234.1132714 40.86202969 234.10549128 43.28059241 234.09765625 45.69921875 C234.09579114 47.37644916 234.09436767 49.05368011 234.09336853 50.73091125 C234.0895507 55.14500432 234.07972666 59.55906447 234.06866455 63.97314453 C234.05843467 68.47753453 234.05386753 72.98192985 234.04882812 77.48632812 C234.03810375 86.32423554 234.02051287 95.16210988 234 104 C226.74 104 219.48 104 212 104 C211.97494385 101.92025879 211.9498877 99.84051758 211.92407227 97.69775391 C211.84070272 90.83650181 211.75200347 83.97532615 211.66066074 77.1141758 C211.60542878 72.95309752 211.55200835 68.79201222 211.50268555 64.63085938 C211.45504601 60.61728058 211.40270336 56.60378848 211.34705925 52.59031296 C211.32663383 51.05689011 211.30792105 49.52344349 211.29092598 47.98997879 C211.26688605 45.84690991 211.23683111 43.70400538 211.20532227 41.56103516 C211.18977798 40.33969879 211.1742337 39.11836243 211.15821838 37.86001587 C211.19291357 35.05488886 211.19291357 35.05488886 210 33 C207.47266765 32.34444881 207.47266765 32.34444881 205 32 C203.8961154 35.58351913 203.84311829 38.9594465 203.79467773 42.69628906 C203.78477814 43.36011597 203.77487854 44.02394287 203.76467896 44.70788574 C203.7331874 46.89376302 203.70835563 49.079662 203.68359375 51.265625 C203.66301355 52.78449049 203.64201679 54.30335038 203.62062073 55.82220459 C203.56551016 59.81371525 203.51605247 63.80527665 203.46777344 67.796875 C203.41747783 71.8724416 203.36183389 75.9479348 203.30664062 80.0234375 C203.19919384 88.01556288 203.09771913 96.00774979 203 104 C199.20187812 104.16277382 195.40368099 104.3237247 191.60546875 104.484375 C190.5419519 104.52997559 189.47843506 104.57557617 188.38269043 104.62255859 C161.8504921 105.74055967 161.8504921 105.74055967 157 102 C153.98076102 97.47114154 153.87481667 93.45914721 153.88647461 88.1081543 C153.88655014 86.94732834 153.88662567 85.78650238 153.88670349 84.59049988 C153.89186478 83.34762711 153.89702606 82.10475433 153.90234375 80.82421875 C153.90446617 78.90377495 153.90446617 78.90377495 153.90663147 76.9445343 C153.91043603 73.5530296 153.92024857 70.16156823 153.93133545 66.77008057 C153.94159403 63.30440863 153.94613859 59.83872964 153.95117188 56.37304688 C153.96219245 49.58201252 153.9789243 42.79101019 154 36 C152.68 36 151.36 36 150 36 C150.24339111 37.01537842 150.24339111 37.01537842 150.49169922 38.05126953 C151.08189164 41.47506593 151.12970384 44.70464764 151.1328125 48.1796875 C151.13376923 48.86950714 151.13472595 49.55932678 151.13571167 50.27005005 C151.1363904 51.73081554 151.13455757 53.1915841 151.13037109 54.65234375 C151.12510051 56.83340695 151.1302835 59.01425636 151.13671875 61.1953125 C151.15424639 91.70162644 151.15424639 91.70162644 145.0625 100.9375 C141.9040562 104.0959438 139.95271544 104.929042 135.43359375 105.265625 C134.11488281 105.26046875 132.79617187 105.2553125 131.4375 105.25 C130.76525391 105.25773437 130.09300781 105.26546875 129.40039062 105.2734375 C125.71577164 105.25880148 124.14384852 105.09589902 121 103 C120.67 109.27 120.34 115.54 120 122 C112.41 122 104.82 122 97 122 C96.67 112.43 96.34 102.86 96 93 C95.01 94.98 94.02 96.96 93 99 C88.78947368 103.73684211 88.78947368 103.73684211 85 105 C82.68980664 105.12070269 80.3758126 105.175363 78.0625 105.1875 C76.83660156 105.20167969 75.61070312 105.21585937 74.34765625 105.23046875 C71 105 71 105 67 103 C66.67 109.27 66.34 115.54 66 122 C58.74 122 51.48 122 44 122 C44 116.06 44 110.12 44 104 C37.73 104 31.46 104 25 104 C24.1913808 98.33966563 23.91341895 93.62776803 24 88 C20.04 88 16.08 88 12 88 C12.020625 89.340625 12.04125 90.68125 12.0625 92.0625 C12.12694687 96.25154649 11.61253991 99.71222065 11 104 C4.07 104 -2.86 104 -10 104 C-9.3222268 92.11971411 -8.33797396 80.29991393 -7.1875 68.45703125 C-7.01180309 66.63101207 -6.83626916 64.80497721 -6.66088867 62.97892761 C-6.29616771 59.18784904 -5.92955239 55.39696 -5.56152344 51.60620117 C-5.09055019 46.75355696 -4.62435367 41.90046744 -4.15953064 37.04723072 C-3.79937089 33.2921297 -3.43675782 29.53726871 -3.07339478 25.78247643 C-2.90041498 23.99201334 -2.7281857 22.20147758 -2.55673218 20.41086769 C-2.31765432 17.9179503 -2.07528054 15.42537467 -1.83203125 12.93286133 C-1.72757187 11.83336403 -1.72757187 11.83336403 -1.6210022 10.71165466 C-1.26388639 7.08899107 -0.79437791 3.55378593 0 0 Z M17 19 C16.56796117 24.6555721 16.14090158 30.31149118 15.71826172 35.96777344 C15.57409046 37.88812164 15.42860759 39.80837188 15.28173828 41.72851562 C15.06970857 44.50365273 14.86254794 47.2791191 14.65625 50.0546875 C14.59062866 50.8998996 14.52500732 51.74511169 14.45739746 52.61593628 C14.03232333 58.41993728 13.92695689 64.18138237 14 70 C16.64 70 19.28 70 22 70 C21.37779839 58.28758796 20.50162367 46.61755421 19.4375 34.9375 C19.29728828 33.37697447 19.15731347 31.81642763 19.01757812 30.25585938 C18.68109728 26.5036567 18.34147713 22.75175114 18 19 C17.67 19 17.34 19 17 19 Z M69 32 C65.90431189 35.09568811 65.87607452 38.17230925 65.85473633 42.41381836 C65.84835648 43.27829086 65.84197662 44.14276337 65.83540344 45.03343201 C65.83429062 45.95954788 65.8331778 46.88566376 65.83203125 47.83984375 C65.82870285 48.79895157 65.82537445 49.75805939 65.82194519 50.74623108 C65.81688721 52.77279176 65.81453652 54.79936075 65.81469727 56.82592773 C65.81251059 59.92250302 65.79434233 63.01872208 65.77539062 66.11523438 C65.7724565 68.08593628 65.77047183 70.05663988 65.76953125 72.02734375 C65.76234573 72.95143539 65.75516022 73.87552704 65.74775696 74.82762146 C65.71931468 81.16711183 65.71931468 81.16711183 68 87 C70.54775306 87.89386164 70.54775306 87.89386164 73 88 C74.77902726 84.93046751 75.24895149 82.72058283 75.24291992 79.18725586 C75.24599655 78.23624496 75.24907318 77.28523407 75.25224304 76.30540466 C75.24505753 75.28551956 75.23787201 74.26563446 75.23046875 73.21484375 C75.23001053 72.1622084 75.22955231 71.10957306 75.2290802 70.02503967 C75.22606135 67.8017565 75.21818605 65.57847538 75.20581055 63.35522461 C75.18755104 59.9470269 75.18530095 56.53910091 75.18554688 53.13085938 C75.1806316 50.97135181 75.17480324 48.81184609 75.16796875 46.65234375 C75.16685593 45.63043442 75.1657431 44.60852509 75.16459656 43.5556488 C75.15502678 42.1338607 75.15502678 42.1338607 75.14526367 40.68334961 C75.14145187 39.84936142 75.13764008 39.01537323 75.13371277 38.15611267 C75.08123297 35.81553058 75.08123297 35.81553058 74 33 C71.60280568 32.32041397 71.60280568 32.32041397 69 32 Z M121.33576965 33.19482422 C119.59022299 35.55377776 119.62557926 36.96299714 119.62768555 39.8828125 C119.62145676 40.87394043 119.61522797 41.86506836 119.60881042 42.88623047 C119.61802017 43.95502441 119.62722992 45.02381836 119.63671875 46.125 C119.63622025 47.22344238 119.63572174 48.32188477 119.63520813 49.45361328 C119.63754963 51.77703662 119.64728252 54.10046245 119.66381836 56.42382812 C119.68740668 59.98590714 119.68438015 63.54723777 119.67773438 67.109375 C119.68331113 69.36458781 119.690421 71.61979746 119.69921875 73.875 C119.69830734 74.94379395 119.69739594 76.01258789 119.69645691 77.11376953 C119.70598892 78.10489746 119.71552094 79.09602539 119.7253418 80.1171875 C119.72994919 80.98972168 119.73455658 81.86225586 119.73930359 82.76123047 C119.86113301 85.28433271 119.86113301 85.28433271 122 88 C125.29075996 87.62095792 125.29075996 87.62095792 128 86 C128.10382589 84.38419992 128.13852243 82.76389376 128.14526367 81.14477539 C128.15164352 80.1102272 128.15802338 79.07567902 128.16459656 78.00978088 C128.16570938 76.88377975 128.1668222 75.75777863 128.16796875 74.59765625 C128.17129715 73.44962021 128.17462555 72.30158417 128.17805481 71.11875916 C128.18312901 68.68505251 128.18546298 66.25133888 128.18530273 63.81762695 C128.18748854 60.08207808 128.20563746 56.34682465 128.22460938 52.61132812 C128.22754325 50.25260518 128.22952808 47.89388083 128.23046875 45.53515625 C128.23765427 44.41117935 128.24483978 43.28720245 128.25224304 42.12916565 C128.24916641 41.0914653 128.24608978 40.05376495 128.24291992 38.98461914 C128.24434494 38.06830215 128.24576996 37.15198517 128.24723816 36.207901 C128.20937048 33.79335343 128.20937048 33.79335343 126 32 C123.06470887 31.70839787 123.06470887 31.70839787 121.33576965 33.19482422 Z M176 36 C176 53.16 176 70.32 176 88 C177.32 88.33 178.64 88.66 180 89 C181.2337198 87.98808362 181.2337198 87.98808362 181.12025452 85.90562439 C181.11803391 84.98407059 181.11581329 84.06251678 181.11352539 83.11303711 C181.11344986 82.07203354 181.11337433 81.03102997 181.11329651 79.95848083 C181.10813522 78.8262056 181.10297394 77.69393036 181.09765625 76.52734375 C181.09553383 74.79817467 181.09553383 74.79817467 181.09336853 73.03407288 C181.08775005 69.33518936 181.07519442 65.63636536 181.0625 61.9375 C181.05748738 59.43684983 181.05292406 56.93619871 181.04882812 54.43554688 C181.03777462 48.29034412 181.02101852 42.14517631 181 36 C179.35 36 177.7 36 176 36 Z " fill="#000000" transform="translate(72,22)"/>
<path d="M0 0 C0.89460937 -0.00128906 1.78921875 -0.00257812 2.7109375 -0.00390625 C3.65195313 -0.00003906 4.59296875 0.00382812 5.5625 0.0078125 C6.97402344 0.00201172 6.97402344 0.00201172 8.4140625 -0.00390625 C9.75597656 -0.00197266 9.75597656 -0.00197266 11.125 0 C11.95128906 0.00112793 12.77757812 0.00225586 13.62890625 0.00341797 C15.5625 0.1328125 15.5625 0.1328125 16.5625 1.1328125 C16.64881874 2.47548663 16.66956473 3.82255572 16.66015625 5.16796875 C16.65693359 5.97685547 16.65371094 6.78574219 16.65039062 7.61914062 C16.64201172 8.46927734 16.63363281 9.31941406 16.625 10.1953125 C16.62048828 11.04931641 16.61597656 11.90332031 16.61132812 12.78320312 C16.59950373 14.89976913 16.58156769 17.01629935 16.5625 19.1328125 C18.2125 19.1328125 19.8625 19.1328125 21.5625 19.1328125 C21.5625 12.8628125 21.5625 6.5928125 21.5625 0.1328125 C28.8225 0.1328125 36.0825 0.1328125 43.5625 0.1328125 C43.8925 6.7328125 44.2225 13.3328125 44.5625 20.1328125 C46.5425 18.4828125 48.5225 16.8328125 50.5625 15.1328125 C55.8603015 14.00903642 61.65207451 14.25600826 66.5625 16.6953125 C70.88987105 20.21130147 72.79099115 23.81828595 74.5625 29.1328125 C74.65315412 31.55121054 74.68861542 33.94007533 74.67602539 36.3581543 C74.67617142 37.09011017 74.67631744 37.82206604 74.6764679 38.57620239 C74.6757714 40.99484219 74.66799128 43.41340491 74.66015625 45.83203125 C74.65829114 47.50926166 74.65686767 49.18649261 74.65586853 50.86372375 C74.6520507 55.27781682 74.64222666 59.69187697 74.63116455 64.10595703 C74.62093467 68.61034703 74.61636753 73.11474235 74.61132812 77.61914062 C74.60060375 86.45704804 74.58301287 95.29492238 74.5625 104.1328125 C67.3025 104.1328125 60.0425 104.1328125 52.5625 104.1328125 C52.53744385 102.05307129 52.5123877 99.97333008 52.48657227 97.83056641 C52.40320272 90.96931431 52.31450347 84.10813865 52.22316074 77.2469883 C52.16792878 73.08591002 52.11450835 68.92482472 52.06518555 64.76367188 C52.01754601 60.75009308 51.96520336 56.73660098 51.90955925 52.72312546 C51.88913383 51.18970261 51.87042105 49.65625599 51.85342598 48.12279129 C51.82938605 45.97972241 51.79933111 43.83681788 51.76782227 41.69384766 C51.75227798 40.47251129 51.7367337 39.25117493 51.72071838 37.99282837 C51.75541357 35.18770136 51.75541357 35.18770136 50.5625 33.1328125 C48.03516765 32.47726131 48.03516765 32.47726131 45.5625 32.1328125 C44.4586154 35.71633163 44.40561829 39.092259 44.35717773 42.82910156 C44.34727814 43.49292847 44.33737854 44.15675537 44.32717896 44.84069824 C44.2956874 47.02657552 44.27085563 49.2124745 44.24609375 51.3984375 C44.22551355 52.91730299 44.20451679 54.43616288 44.18312073 55.95501709 C44.12801016 59.94652775 44.07855247 63.93808915 44.03027344 67.9296875 C43.97997783 72.0052541 43.92433389 76.0807473 43.86914062 80.15625 C43.76169384 88.14837538 43.66021913 96.14056229 43.5625 104.1328125 C39.76437812 104.29558632 35.96618099 104.4565372 32.16796875 104.6171875 C31.1044519 104.66278809 30.04093506 104.70838867 28.94519043 104.75537109 C2.4129921 105.87337217 2.4129921 105.87337217 -2.4375 102.1328125 C-5.45673898 97.60395404 -5.56268333 93.59195971 -5.55102539 88.2409668 C-5.55094986 87.08014084 -5.55087433 85.91931488 -5.55079651 84.72331238 C-5.54563522 83.48043961 -5.54047394 82.23756683 -5.53515625 80.95703125 C-5.5337413 79.67673538 -5.53232635 78.39643951 -5.53086853 77.0773468 C-5.52706397 73.6858421 -5.51725143 70.29438073 -5.50616455 66.90289307 C-5.49590597 63.43722113 -5.49136141 59.97154214 -5.48632812 56.50585938 C-5.47530755 49.71482502 -5.4585757 42.92382269 -5.4375 36.1328125 C-7.0875 36.1328125 -8.7375 36.1328125 -10.4375 36.1328125 C-11.2695582 30.41241239 -11.55786664 24.91041134 -11.4375 19.1328125 C-9.4575 19.1328125 -7.4775 19.1328125 -5.4375 19.1328125 C-5.44910156 17.84503906 -5.46070313 16.55726562 -5.47265625 15.23046875 C-5.4820327 13.55208478 -5.49113305 11.87369924 -5.5 10.1953125 C-5.50837891 9.34517578 -5.51675781 8.49503906 -5.52539062 7.61914062 C-5.52861328 6.81025391 -5.53183594 6.00136719 -5.53515625 5.16796875 C-5.54039307 4.419104 -5.54562988 3.67023926 -5.55102539 2.89868164 C-5.32041893 -0.68836459 -3.0498859 0.00416326 0 0 Z M16.5625 36.1328125 C16.5625 53.2928125 16.5625 70.4528125 16.5625 88.1328125 C17.8825 88.4628125 19.2025 88.7928125 20.5625 89.1328125 C21.7962198 88.12089612 21.7962198 88.12089612 21.68275452 86.03843689 C21.68053391 85.11688309 21.67831329 84.19532928 21.67602539 83.24584961 C21.67594986 82.20484604 21.67587433 81.16384247 21.67579651 80.09129333 C21.67063522 78.9590181 21.66547394 77.82674286 21.66015625 76.66015625 C21.65803383 74.93098717 21.65803383 74.93098717 21.65586853 73.16688538 C21.65025005 69.46800186 21.63769442 65.76917786 21.625 62.0703125 C21.61998738 59.56966233 21.61542406 57.06901121 21.61132812 54.56835938 C21.60027462 48.42315662 21.58351852 42.27798881 21.5625 36.1328125 C19.9125 36.1328125 18.2625 36.1328125 16.5625 36.1328125 Z " fill="#FB5757" transform="translate(231.4375,21.8671875)"/>
<path d="M0 0 C1.08021423 0.03014442 1.08021423 0.03014442 2.18225098 0.06089783 C2.92841675 0.08793289 3.67458252 0.11496796 4.44335938 0.14282227 C5.23109741 0.16643326 6.01883545 0.19004425 6.83044434 0.21437073 C9.31622101 0.29019464 11.80161981 0.3745617 14.28710938 0.45922852 C15.98500831 0.51253088 17.682925 0.56527052 19.38085938 0.61743164 C23.51650973 0.74569783 27.65184397 0.88162003 31.78710938 1.02172852 C32.28210938 3.49672852 32.28210938 3.49672852 32.78710938 6.02172852 C33.15320313 5.58860352 33.51929688 5.15547852 33.89648438 4.70922852 C37.6551551 0.8431672 40.40964418 -0.45423134 45.84960938 -0.60327148 C51.95774796 -0.28259421 55.29353167 1.43909447 59.53710938 5.83422852 C62.5750586 11.15063965 63.03472209 16.59501034 63.01416016 22.609375 C63.01445221 23.33216141 63.01474426 24.05494781 63.01504517 24.79963684 C63.0136633 27.16415855 62.99815677 29.52835631 62.98242188 31.89282227 C62.97868767 33.54191414 62.97584262 35.19100825 62.97384644 36.84010315 C62.96624209 41.16212178 62.94662136 45.48400413 62.92443848 49.80596924 C62.90391086 54.22357338 62.89482998 58.64119972 62.88476562 63.05883789 C62.86337219 71.71320401 62.82821641 80.36743356 62.78710938 89.02172852 C55.52710938 89.02172852 48.26710938 89.02172852 40.78710938 89.02172852 C40.76205322 86.9419873 40.73699707 84.86224609 40.71118164 82.71948242 C40.6278121 75.85823033 40.53911285 68.99705466 40.44777012 62.13590431 C40.39253816 57.97482604 40.33911772 53.81374074 40.28979492 49.65258789 C40.24215539 45.6390091 40.18981274 41.625517 40.13416862 37.61204147 C40.1137432 36.07861863 40.09503043 34.54517201 40.07803535 33.01170731 C40.05399542 30.86863843 40.02394049 28.7257339 39.99243164 26.58276367 C39.97688736 25.36142731 39.96134308 24.14009094 39.94532776 22.88174438 C39.98002295 20.07661737 39.98002295 20.07661737 38.78710938 18.02172852 C37.13710938 18.35172852 35.48710937 18.68172852 33.78710938 19.02172852 C32.88084545 22.9126712 32.636035 26.56505755 32.58178711 30.55615234 C32.56184189 31.85712357 32.54189667 33.15809479 32.52134705 34.49848938 C32.50436649 35.90857832 32.48748755 37.31866848 32.47070312 38.72875977 C32.45011562 40.17893543 32.42911869 41.62910534 32.4077301 43.07926941 C32.35269482 46.88499266 32.30320427 50.6907684 32.25488281 54.49658203 C32.19566986 59.06887263 32.12954451 63.64106789 32.06458282 68.21327972 C31.9668068 75.1493708 31.87779132 82.08552472 31.78710938 89.02172852 C17.26710938 89.02172852 2.74710937 89.02172852 -12.21289062 89.02172852 C-12.21289062 59.98172852 -12.21289062 30.94172852 -12.21289062 1.02172852 C-3.21289062 -0.10327148 -3.21289062 -0.10327148 0 0 Z " fill="#FC5757" transform="translate(319.212890625,36.978271484375)"/>
<path d="M0 0 C2.52750327 1.06396737 3.92722406 2.1575325 6 4 C6.33 3.01 6.66 2.02 7 1 C14.59 1 22.18 1 30 1 C30.06796833 11.25798966 30.12292682 21.51582801 30.15543652 31.77399254 C30.1710451 36.53805328 30.19219487 41.30195101 30.22631836 46.06591797 C30.25908414 50.66951713 30.27688911 55.27296019 30.28463173 59.87666702 C30.29014448 61.62681152 30.30090904 63.37694816 30.31719017 65.1270256 C30.52591602 88.50814464 30.52591602 88.50814464 22.84130859 96.54418945 C16.11406961 101.86300755 8.21044125 102.61621859 -0.0625 102.4375 C-0.99126953 102.44458984 -1.92003906 102.45167969 -2.87695312 102.45898438 C-10.1514681 102.39262038 -17.66691072 101.64607101 -23.0625 96.3125 C-24.0215625 95.1678125 -24.0215625 95.1678125 -25 94 C-22.69 90.04 -20.38 86.08 -18 82 C-16.68 82.474375 -15.36 82.94875 -14 83.4375 C-8.68792479 85.1914871 -3.68969897 86.7016606 1.875 85.25 C4.29003304 84.03720626 4.29003304 84.03720626 6 81 C6.16713569 78.37468476 6.16713569 78.37468476 6 76 C5.566875 76.474375 5.13375 76.94875 4.6875 77.4375 C1.02550556 80.82823559 -3.57369546 80.27064544 -8.2734375 80.21484375 C-13.14261988 79.83116892 -15.90076873 78.12976547 -19.25 74.6875 C-23.48562701 68.18278709 -23.30711582 61.83618906 -23.30078125 54.3203125 C-23.30506638 53.19358124 -23.3093515 52.06684998 -23.31376648 50.90597534 C-23.31949828 48.52733023 -23.32001854 46.14866759 -23.31567383 43.77001953 C-23.31251702 40.14455016 -23.33597762 36.51989966 -23.36132812 32.89453125 C-23.36360164 30.57812602 -23.36430437 28.26171862 -23.36328125 25.9453125 C-23.372491 24.86798859 -23.38170074 23.79066467 -23.39118958 22.68069458 C-23.351672 16.20243112 -23.2388939 9.46800425 -18.54804993 4.44534302 C-12.65770999 -0.61219374 -7.56220674 -0.75819 0 0 Z M1 17 C-1.68475487 19.68475487 -1.249526 21.75147314 -1.27789307 25.40074158 C-1.2738446 26.27783279 -1.26979614 27.15492401 -1.265625 28.05859375 C-1.26753845 28.95868668 -1.2694519 29.8587796 -1.27142334 30.78614807 C-1.27278573 32.69182616 -1.26908557 34.59751351 -1.26074219 36.50317383 C-1.25005583 39.42224995 -1.26062922 42.34070889 -1.2734375 45.25976562 C-1.27211567 47.10937636 -1.26955279 48.95898671 -1.265625 50.80859375 C-1.26967346 51.68366074 -1.27372192 52.55872772 -1.27789307 53.46031189 C-1.27158875 54.27448074 -1.26528442 55.0886496 -1.25878906 55.92749023 C-1.25640228 57.00098976 -1.25640228 57.00098976 -1.25396729 58.09617615 C-1.09810906 60.32929717 -1.09810906 60.32929717 1 63 C3.47266765 62.65555119 3.47266765 62.65555119 6 62 C7.67894952 58.64210095 7.16316336 54.85315254 7.16796875 51.16015625 C7.17296135 49.84331093 7.17296135 49.84331093 7.17805481 48.49986267 C7.18312218 46.64127121 7.18546319 44.78267063 7.18530273 42.92407227 C7.18748849 40.07748453 7.20564408 37.23128471 7.22460938 34.38476562 C7.22754345 32.5807305 7.22952815 30.77669352 7.23046875 28.97265625 C7.23765427 28.11946304 7.24483978 27.26626984 7.25224304 26.38722229 C7.24325222 21.39703323 7.24325222 21.39703323 5 17 C3.68 17 2.36 17 1 17 Z " fill="#FA5758" transform="translate(406,37)"/>
<path d="M0 0 C7.26 0 14.52 0 22 0 C22.020625 2.454375 22.04125 4.90875 22.0625 7.4375 C22.071604 8.21150146 22.08070801 8.98550293 22.09008789 9.78295898 C22.09724913 11.52221717 22.05024702 13.26145304 22 15 C21 16 21 16 18.95874023 16.11352539 C18.08419189 16.10828857 17.20964355 16.10305176 16.30859375 16.09765625 C15.36435547 16.09443359 14.42011719 16.09121094 13.44726562 16.08789062 C11.95743164 16.07532227 11.95743164 16.07532227 10.4375 16.0625 C9.44041016 16.05798828 8.44332031 16.05347656 7.41601562 16.04882812 C4.94398513 16.03700023 2.47198528 16.01906415 0 16 C0 10.72 0 5.44 0 0 Z " fill="#FC5757" transform="translate(307,17)"/>
<path d="M0 0 C3.02182284 2.05741129 4.69011377 3.49949825 5.4453125 7.15625 C5.65056702 11.26134032 5.33688603 13.46098235 3.125 17 C0.38262878 19.58105526 -0.51262207 19.95402095 -4.3125 20.3125 C-8.57536111 19.95124058 -10.01992054 18.98007946 -13 16 C-14.73007568 12.53984865 -14.4835273 8.78327445 -14 5 C-10.3175525 -1.09508551 -6.7334638 -1.62531885 0 0 Z " fill="#F95858" transform="translate(454,107)"/>
<path d="M0 0 C0.33 0 0.66 0 1 0 C1 28.38 1 56.76 1 86 C0.01 86.495 0.01 86.495 -1 87 C-2.30269376 83.06783323 -2.09952336 79.12184938 -2.03759766 75.03442383 C-2.02959641 74.23565323 -2.02159515 73.43688263 -2.01335144 72.61390686 C-1.98550805 69.9781928 -1.95002244 67.34264615 -1.9140625 64.70703125 C-1.89229277 62.87668728 -1.87084325 61.04633948 -1.84970093 59.21598816 C-1.80423508 55.38360575 -1.75500993 51.55129486 -1.703125 47.71899414 C-1.63675694 42.79582959 -1.57954552 37.8726089 -1.52509499 32.94929981 C-1.4823564 29.17216712 -1.43490766 25.39510509 -1.38599777 21.61804771 C-1.36303491 19.80189458 -1.34153349 17.98572239 -1.32149124 16.16953468 C-1.29283709 13.63873028 -1.25788635 11.10809139 -1.22119141 8.57739258 C-1.2138649 7.82051147 -1.20653839 7.06363037 -1.19898987 6.28381348 C-1.11427825 1.11427825 -1.11427825 1.11427825 0 0 Z " fill="#EC4947" transform="translate(329,38)"/>
<path d="M0 0 C0.66 0 1.32 0 2 0 C1.67 23.1 1.34 46.2 1 70 C-8.9 70.33 -18.8 70.66 -29 71 C-28.505 70.01 -28.505 70.01 -28 69 C-24.41713181 68.80279021 -20.83369943 68.61892478 -17.25 68.4375 C-15.72632813 68.35338867 -15.72632813 68.35338867 -14.171875 68.26757812 C-13.1921875 68.21923828 -12.2125 68.17089844 -11.203125 68.12109375 C-9.85202637 68.05039673 -9.85202637 68.05039673 -8.47363281 67.97827148 C-6.12542592 67.99889825 -4.23793298 68.32176929 -2 69 C-0.93322366 65.49925485 -0.84418006 62.22813035 -0.79467773 58.57910156 C-0.77473251 57.27805481 -0.75478729 55.97700806 -0.73423767 54.63653564 C-0.71725582 53.2212333 -0.70037693 51.80592972 -0.68359375 50.390625 C-0.66301245 48.93902001 -0.64201567 47.48742086 -0.62062073 46.03582764 C-0.56552149 42.22187028 -0.51605885 38.40785993 -0.46777344 34.59381104 C-0.41746951 30.69921166 -0.36182993 26.80468891 -0.30664062 22.91015625 C-0.19920772 15.27350245 -0.09772999 7.63678479 0 0 Z " fill="#F56261" transform="translate(274,56)"/>
<path d="M0 0 C7.26 0 14.52 0 22 0 C22.020625 2.454375 22.04125 4.90875 22.0625 7.4375 C22.071604 8.21150146 22.08070801 8.98550293 22.09008789 9.78295898 C22.09724913 11.52221717 22.05024702 13.26145304 22 15 C21 16 21 16 18.95874023 16.11352539 C18.08419189 16.10828857 17.20964355 16.10305176 16.30859375 16.09765625 C15.36435547 16.09443359 14.42011719 16.09121094 13.44726562 16.08789062 C11.95743164 16.07532227 11.95743164 16.07532227 10.4375 16.0625 C9.44041016 16.05798828 8.44332031 16.05347656 7.41601562 16.04882812 C4.94395151 16.03700007 2.47200482 16.02051849 0 16 C0 14.68 0 13.36 0 12 C0.66 12 1.32 12 2 12 C2 12.66 2 13.32 2 14 C7.94 14 13.88 14 20 14 C20 9.71 20 5.42 20 1 C13.4 1 6.8 1 0 1 C0 0.67 0 0.34 0 0 Z " fill="#D4605F" transform="translate(307,17)"/>
<path d="M0 0 C2.4375 1.5625 2.4375 1.5625 4 3 C3.67 3.66 3.34 4.32 3 5 C2.34 4.34 1.68 3.68 1 3 C-1.19704511 2.32348793 -1.19704511 2.32348793 -3.625 1.875 C-4.44226563 1.70742187 -5.25953125 1.53984375 -6.1015625 1.3671875 C-6.72804688 1.24601562 -7.35453125 1.12484375 -8 1 C-8.33 3.31 -8.66 5.62 -9 8 C-9.99 7.67 -10.98 7.34 -12 7 C-11.67 10.3 -11.34 13.6 -11 17 C-14.43076923 13.56923077 -14.43076923 13.56923077 -14.4375 9.625 C-14.32626977 6.210232 -14.01750967 5.02898152 -12.1875 2 C-8.18322115 -1.66105495 -5.07683233 -1.06880681 0 0 Z " fill="#E55C60" transform="translate(454,107)"/>
<path d="M0 0 C0.66 0 1.32 0 2 0 C2 0.99 2 1.98 2 3 C-12.52 3 -27.04 3 -42 3 C-42 2.67 -42 2.34 -42 2 C-40.7632251 1.97494385 -39.5264502 1.9498877 -38.25219727 1.92407227 C-33.68063287 1.83017747 -29.10922682 1.72991371 -24.5378418 1.62768555 C-22.55610854 1.58426856 -20.57433622 1.54259863 -18.5925293 1.50268555 C-15.7503683 1.44514617 -12.90840517 1.38140555 -10.06640625 1.31640625 C-8.72891075 1.29133751 -8.72891075 1.29133751 -7.36439514 1.26576233 C-3.36051605 1.563413 -3.36051605 1.563413 0 0 Z " fill="#E85C5C" transform="translate(349,123)"/>
<path d="M0 0 C0.66 0 1.32 0 2 0 C2.70511719 0.80824219 3.41023438 1.61648437 4.13671875 2.44921875 C7.64638294 5.57583637 10.31786852 5.77379026 14.8125 5.8125 C15.85180664 5.85020508 15.85180664 5.85020508 16.91210938 5.88867188 C18.60747122 5.94713263 20.30379287 5.97653047 22 6 C22.33 5.01 22.66 4.02 23 3 C23.99 3.33 24.98 3.66 26 4 C23.38925144 6.85939128 21.45492997 7.88123021 17.51171875 8.203125 C7.64400615 8.36690446 7.64400615 8.36690446 3 5 C1.125 2.3125 1.125 2.3125 0 0 Z " fill="#D36363" transform="translate(386,109)"/>
<path d="M0 0 C5.41484141 0.07809867 8.30902717 0.65297011 12.25 4.375 C12.25 5.035 12.25 5.695 12.25 6.375 C11.59 6.375 10.93 6.375 10.25 6.375 C10.25 5.715 10.25 5.055 10.25 4.375 C7.775 3.88 7.775 3.88 5.25 3.375 C5.25 4.035 5.25 4.695 5.25 5.375 C4.26 5.375 3.27 5.375 2.25 5.375 C2.25 4.055 2.25 2.735 2.25 1.375 C-1.05 1.705 -4.35 2.035 -7.75 2.375 C-5.09500624 -0.27999376 -3.70036703 0.04602447 0 0 Z " fill="#E56062" transform="translate(399.75,36.625)"/>
<path d="M0 0 C4.89643015 0.45548187 7.58909421 1.40957286 11 5 C13.54599673 9.4368347 15.67426302 13.77446159 15 19 C13.71041353 16.6050537 12.83536665 14.44024662 12.0625 11.8125 C11.711875 10.884375 11.36125 9.95625 11 9 C10.01 8.67 9.02 8.34 8 8 C8 6.68 8 5.36 8 4 C5.36 3.34 2.72 2.68 0 2 C0 1.34 0 0.68 0 0 Z " fill="#DF5E60" transform="translate(291,37)"/>
<path d="M0 0 C0.61875 0.66 1.2375 1.32 1.875 2 C3.75637427 4.2284549 3.75637427 4.2284549 6 4 C6 4.66 6 5.32 6 6 C5.01 6 4.02 6 3 6 C2.67 6.99 2.34 7.98 2 9 C-1.875 7.25 -1.875 7.25 -3 5 C-1.5625 2.375 -1.5625 2.375 0 0 Z " fill="#EC5B60" transform="translate(384,126)"/>
<path d="M0 0 C0 0.99 0 1.98 0 3 C-0.66 3.66 -1.32 4.32 -2 5 C-4.04169972 8.96329945 -4.36641533 12.73287147 -4.65625 17.109375 C-4.7696875 17.73328125 -4.883125 18.3571875 -5 19 C-5.66 19.33 -6.32 19.66 -7 20 C-7.38250931 12.85982618 -6.65179451 7.0306223 -1.8125 1.5 C-1.214375 1.005 -0.61625 0.51 0 0 Z " fill="#DD5F5F" transform="translate(390,39)"/>
<path d="M0 0 C1.32 0.33 2.64 0.66 4 1 C0.04 4.465 0.04 4.465 -4 8 C-4.99 7.34 -5.98 6.68 -7 6 C-5.93106782 4.96409662 -4.84421512 3.94666058 -3.75 2.9375 C-3.14671875 2.36902344 -2.5434375 1.80054688 -1.921875 1.21484375 C-1.28765625 0.81394531 -0.6534375 0.41304687 0 0 Z " fill="#E85F65" transform="translate(359,37)"/>
<path d="M0 0 C2.125 0.9375 2.125 0.9375 4 2 C0.30513897 4.46324069 -1.63293092 4.38991688 -6 4 C-7.9375 2.5 -7.9375 2.5 -9 1 C-7.88625 1.020625 -6.7725 1.04125 -5.625 1.0625 C-2.16784079 1.26380718 -2.16784079 1.26380718 0 0 Z " fill="#E16067" transform="translate(452,123)"/>
<path d="M0 0 C1.32 0.66 2.64 1.32 4 2 C2.68 2 1.36 2 0 2 C0.66 3.65 1.32 5.3 2 7 C1.01 7.495 1.01 7.495 0 8 C-0.99 7.67 -1.98 7.34 -3 7 C-1.125 1.125 -1.125 1.125 0 0 Z " fill="#E55D61" transform="translate(388,119)"/>
<path d="M0 0 C0.99 0.33 1.98 0.66 3 1 C1.91796875 2.48828125 1.91796875 2.48828125 0 4 C-3.13671875 4.29296875 -3.13671875 4.29296875 -6.6875 4.1875 C-8.45673828 4.14689453 -8.45673828 4.14689453 -10.26171875 4.10546875 C-11.61716797 4.05326172 -11.61716797 4.05326172 -13 4 C-12.34 3.34 -11.68 2.68 -11 2 C-8.6171875 2.0234375 -8.6171875 2.0234375 -5.875 2.375 C-4.96492188 2.48585938 -4.05484375 2.59671875 -3.1171875 2.7109375 C-2.06917969 2.85402344 -2.06917969 2.85402344 -1 3 C-0.67 2.01 -0.34 1.02 0 0 Z " fill="#E95F61" transform="translate(409,112)"/>
<path d="M0 0 C0 0.99 0 1.98 0 3 C-1.65 3.33 -3.3 3.66 -5 4 C-4.67 4.99 -4.34 5.98 -4 7 C-5.32 6.34 -6.64 5.68 -8 5 C-2.25 0 -2.25 0 0 0 Z " fill="#E26063" transform="translate(284,37)"/>
</svg>
