<?xml version="1.0" encoding="UTF-8"?>
<svg version="1.1" xmlns="http://www.w3.org/2000/svg" width="500" height="150">
<path d="M0 0 C165 0 330 0 500 0 C500 49.5 500 99 500 150 C335 150 170 150 0 150 C0 100.5 0 51 0 0 Z " fill="#FEFDFD" transform="translate(0,0)"/>
<path d="M0 0 C7.26 0 14.52 0 22 0 C22.495 10.395 22.495 10.395 23 21 C25.31 19.02 27.62 17.04 30 15 C35.79179555 14.18425415 40.0803638 14.73487325 45.20703125 17.58984375 C49.23573427 20.75838796 51.40759039 25.22277117 53 30 C53.09014813 32.37644017 53.11756299 34.75539895 53.11352539 37.13354492 C53.11367142 37.85574722 53.11381744 38.57794952 53.1139679 39.32203674 C53.11327145 41.70821134 53.1054916 44.09430779 53.09765625 46.48046875 C53.09579112 48.1352789 53.09436766 49.79008961 53.09336853 51.44490051 C53.08955085 55.79981003 53.07972695 60.15468618 53.06866455 64.50958252 C53.05843433 68.95364938 53.05386745 73.39772163 53.04882812 77.84179688 C53.03810402 86.56121493 53.02051327 95.28059947 53 104 C46.07 104 39.14 104 32 104 C31.970271 100.88824341 31.970271 100.88824341 31.93994141 97.71362305 C31.87307534 90.86430143 31.79543534 84.0151326 31.71247292 77.16598797 C31.6624979 73.01279232 31.61616806 68.85962227 31.578125 64.70629883 C31.54128727 60.69913073 31.49493164 56.69217606 31.44193649 52.6851902 C31.42338445 51.15540112 31.40827947 49.62556627 31.39665604 48.09570885 C31.37980716 45.9551031 31.3507764 43.81498701 31.31884766 41.67456055 C31.30552399 40.45544479 31.29220032 39.23632904 31.2784729 37.98027039 C31.22082005 34.81677041 31.22082005 34.81677041 29 32 C25.70924004 32.37904208 25.70924004 32.37904208 23 34 C22.87598086 36.17731389 22.8219849 38.35863454 22.79467773 40.53930664 C22.78477814 41.22220261 22.77487854 41.90509857 22.76467896 42.60868835 C22.73298065 44.87580853 22.70827387 47.14294969 22.68359375 49.41015625 C22.6630314 50.97815001 22.64203512 52.54613813 22.62062073 54.11412048 C22.56532576 58.24870248 22.51594938 62.38333511 22.46777344 66.51800537 C22.41761247 70.73405483 22.36189826 74.95003043 22.30664062 79.16601562 C22.1989683 87.44394803 22.09754365 95.72194208 22 104 C16.41397609 104.24250588 10.8278151 104.45733448 5.23974609 104.64697266 C3.3403715 104.71528151 1.44124938 104.79104575 -0.45751953 104.87451172 C-3.19270506 104.99343283 -5.9276884 105.08519302 -8.6640625 105.171875 C-9.50804596 105.21439392 -10.35202942 105.25691284 -11.22158813 105.30072021 C-16.65034818 105.4385653 -19.76008045 104.73569088 -24 101 C-26.19776818 97.62869815 -26.24320157 94.82758678 -26.22705078 90.85449219 C-26.22689972 89.61350769 -26.22674866 88.37252319 -26.22659302 87.09393311 C-26.21638061 85.7449121 -26.20594864 84.39589273 -26.1953125 83.046875 C-26.19158049 81.6625387 -26.18873441 80.27819975 -26.18673706 78.89385986 C-26.17911534 75.2573309 -26.15947955 71.62096269 -26.1373291 67.98449707 C-26.11683909 64.27093683 -26.10772861 60.55735052 -26.09765625 56.84375 C-26.07623215 49.56242686 -26.04211401 42.28123599 -26 35 C-27.65 35 -29.3 35 -31 35 C-30.99555878 35.60419769 -30.99111755 36.20839539 -30.98654175 36.8309021 C-30.94205991 43.15823994 -30.91203103 49.48553285 -30.89013672 55.81298828 C-30.88012158 58.16977749 -30.86650558 60.52655441 -30.84912109 62.88330078 C-30.82467481 66.28421068 -30.81347169 69.68495531 -30.8046875 73.0859375 C-30.79436493 74.12801361 -30.78404236 75.17008972 -30.77340698 76.2437439 C-30.77206827 85.10827363 -31.00888811 93.98184036 -37 101 C-41.16525793 103.94615805 -44.73660587 105.15643513 -49.8125 105.25 C-50.64394531 105.27578125 -51.47539062 105.3015625 -52.33203125 105.328125 C-55 105 -55 105 -61 102 C-61.33 108.27 -61.66 114.54 -62 121 C-68.93 121 -75.86 121 -83 121 C-83 86.35 -83 51.7 -83 16 C-76.07 16 -69.14 16 -62 16 C-62 17.32 -62 18.64 -62 20 C-61.53851563 19.6390625 -61.07703125 19.278125 -60.6015625 18.90625 C-55.90860567 15.56738744 -52.25426478 14.19950036 -46.46484375 14.51171875 C-41.00989138 15.5923353 -37.18752803 18.33003871 -34 22.8125 C-33.505 23.8953125 -33.505 23.8953125 -33 25 C-32.67 23.35 -32.34 21.7 -32 20 C-30.02 20 -28.04 20 -26 20 C-26 13.73 -26 7.46 -26 1 C-19.4 1 -12.8 1 -6 1 C-6 7.27 -6 13.54 -6 20 C-4.02 20 -2.04 20 0 20 C0 13.4 0 6.8 0 0 Z " fill="#FF5A5A" transform="translate(253,22)"/>
<path d="M0 0 C11.55 0 23.1 0 35 0 C37.25 15.75 37.25 15.75 37.77783203 21.37255859 C37.89940674 22.64993896 38.02098145 23.92731934 38.14624023 25.2434082 C38.26555908 26.53206787 38.38487793 27.82072754 38.5078125 29.1484375 C38.68171509 30.98498901 38.68171509 30.98498901 38.85913086 32.85864258 C39.28474221 37.36375125 39.70454536 41.86940713 40.125 46.375 C41.548125 61.534375 41.548125 61.534375 43 77 C43.33 56.54 43.66 36.08 44 15 C51.26 15 58.52 15 66 15 C66.495 16.485 66.495 16.485 67 18 C67.99 17.34 68.98 16.68 70 16 C74.741857 13.31899031 78.90642868 13.40992992 84.109375 14.40234375 C89.1082383 15.83998677 91.37482826 18.15399318 93.9921875 22.57421875 C96.96733517 29.73533001 97.29672884 36.46100137 97.265625 44.11328125 C97.26753845 45.16347946 97.2694519 46.21367767 97.27142334 47.29570007 C97.27277879 49.50857789 97.2691273 51.72146383 97.26074219 53.93432617 C97.25006618 57.29168918 97.26064292 60.6485132 97.2734375 64.00585938 C97.27211516 66.16666783 97.26955124 68.32747596 97.265625 70.48828125 C97.26967346 71.47822586 97.27372192 72.46817047 97.27789307 73.4881134 C97.21425658 83.12156916 96.84303755 93.55477515 90 101 C84.49723819 104.52176756 78.4343264 104.96799601 72 104 C70.35 103.01 68.7 102.02 67 101 C66.67 107.6 66.34 114.2 66 121 C58.74 121 51.48 121 44 121 C44 115.06 44 109.12 44 103 C37.73 103 31.46 103 25 103 C24.67 97.72 24.34 92.44 24 87 C19.71 86.67 15.42 86.34 11 86 C11 91.61 11 97.22 11 103 C4.4 103 -2.2 103 -9 103 C-9.31886878 92.18060525 -8.11391052 81.54957586 -7.03125 70.80078125 C-6.82900016 68.75388628 -6.62722553 66.7069443 -6.42590332 64.65995789 C-5.89798 59.30515606 -5.36365476 53.95101224 -4.82794189 48.59698486 C-4.28112629 43.12038178 -3.74043934 37.64317396 -3.19921875 32.16601562 C-2.13877093 21.44341143 -1.07098469 10.72155689 0 0 Z " fill="#040404" transform="translate(72,23)"/>
<path d="M0 0 C4.02561395 1.66882473 6.99990915 3.86656371 9.875 7.125 C13.03878955 15.21023997 13.30094047 23.86066952 13.265625 32.44140625 C13.26849518 34.01389381 13.26849518 34.01389381 13.27142334 35.6181488 C13.27277446 37.81729373 13.26915372 40.01644692 13.26074219 42.21557617 C13.25001665 45.55731306 13.26068003 48.89851379 13.2734375 52.24023438 C13.27211593 54.39062617 13.26955358 56.54101764 13.265625 58.69140625 C13.26967346 59.67710098 13.27372192 60.66279572 13.27789307 61.67835999 C13.21978472 70.38639741 12.87384026 79.1192157 7 86 C2.83474207 88.94615805 -0.73660587 90.15643513 -5.8125 90.25 C-6.64394531 90.27578125 -7.47539062 90.3015625 -8.33203125 90.328125 C-11 90 -11 90 -17 87 C-17.33 93.27 -17.66 99.54 -18 106 C-24.93 106 -31.86 106 -39 106 C-39 71.35 -39 36.7 -39 1 C-32.07 1 -25.14 1 -18 1 C-18 2.32 -18 3.64 -18 5 C-17.53851563 4.6390625 -17.07703125 4.278125 -16.6015625 3.90625 C-11.16238927 0.03648249 -6.63351606 -1.31408797 0 0 Z " fill="#010101" transform="translate(209,37)"/>
<path d="M0 0 C2.5606936 1.70712906 4.01291736 3.15275575 5.625 5.75 C5.955 3.77 6.285 1.79 6.625 -0.25 C13.555 -0.25 20.485 -0.25 27.625 -0.25 C27.71556153 10.4164061 27.78886599 21.0825546 27.83224869 31.749259 C27.85307582 36.70285831 27.88130402 41.65617973 27.92675781 46.60961914 C27.97038992 51.39477309 27.99417373 56.17966063 28.00450897 60.96499825 C28.01186927 62.78576409 28.02624201 64.60651623 28.04792023 66.42716789 C28.27615016 86.39911333 28.27615016 86.39911333 22.04327393 93.56968689 C15.31055855 100.35492463 6.64557282 101.03409506 -2.4375 101.125 C-11.40517723 101.05333209 -18.57894203 100.10760262 -25.375 93.75 C-23.80858249 89.44235185 -21.69163844 85.68828536 -19.375 81.75 C-17.04200199 82.28838416 -14.9214653 82.92930442 -12.6875 83.8125 C-7.90676665 85.16553774 -2.88685891 85.74669847 1.8203125 83.87890625 C4.40878502 82.25971024 4.81626225 80.64797693 5.625 77.75 C5.79298262 75.04113059 5.79298262 75.04113059 5.625 72.75 C4.696875 73.554375 3.76875 74.35875 2.8125 75.1875 C-0.93335032 78.43390361 -4.26407119 79.10983154 -9.25 79.02734375 C-14.289676 78.36959192 -17.48819382 75.80458032 -20.6875 72 C-24.39834952 64.8531787 -24.69261139 57.89661526 -24.7109375 50.00390625 C-24.7175943 48.99335678 -24.7242511 47.98280731 -24.73110962 46.94163513 C-24.74118844 44.81454272 -24.74592813 42.687419 -24.74560547 40.56030273 C-24.74998244 37.32547507 -24.78636432 34.0920091 -24.82421875 30.85742188 C-24.83008734 28.78125462 -24.83405645 26.70508095 -24.8359375 24.62890625 C-24.85030853 23.67238663 -24.86467957 22.715867 -24.87948608 21.73036194 C-24.82919294 14.25598614 -23.17291206 8.15995532 -18.375 2.3125 C-12.65043052 -2.15981991 -6.74086223 -2.49661564 0 0 Z " fill="#FF5858" transform="translate(407.375,38.25)"/>
<path d="M0 0 C4.08168656 2.75276535 6.89384539 6.23329355 8.6875 10.8125 C8.86736025 13.35829511 8.94047207 15.7912434 8.91455078 18.33496094 C8.91484283 19.08656998 8.91513489 19.83817902 8.91543579 20.61256409 C8.91404519 23.09078616 8.89849684 25.5687056 8.8828125 28.046875 C8.87908141 29.76751542 8.87623489 31.48815797 8.87423706 33.20880127 C8.86660818 37.73307176 8.84696608 42.25721344 8.8248291 46.78143311 C8.80435464 51.39984393 8.79523192 56.0182756 8.78515625 60.63671875 C8.76371947 69.69537814 8.72854339 78.7539082 8.6875 87.8125 C2.0875 87.8125 -4.5125 87.8125 -11.3125 87.8125 C-11.33755615 85.73275879 -11.3626123 83.65301758 -11.38842773 81.51025391 C-11.47179728 74.64900181 -11.56049653 67.78782615 -11.65183926 60.9266758 C-11.70707122 56.76559752 -11.76049165 52.60451222 -11.80981445 48.44335938 C-11.85745399 44.42978058 -11.90979664 40.41628848 -11.96544075 36.40281296 C-11.98586617 34.86939011 -12.00457895 33.33594349 -12.02157402 31.80247879 C-12.04561395 29.65940991 -12.07566889 27.51650538 -12.10717773 25.37353516 C-12.12272202 24.15219879 -12.1382663 22.93086243 -12.15428162 21.67251587 C-12.11958643 18.86738886 -12.11958643 18.86738886 -13.3125 16.8125 C-15.2925 16.8125 -17.2725 16.8125 -19.3125 16.8125 C-20.74594452 19.67938904 -20.47704059 22.16926078 -20.51782227 25.37353516 C-20.53267166 26.38346779 -20.53267166 26.38346779 -20.54782104 27.4138031 C-20.57945115 29.64302026 -20.60419934 31.87225874 -20.62890625 34.1015625 C-20.64947448 35.64570678 -20.67047092 37.18984541 -20.69187927 38.73397827 C-20.74711349 42.80114167 -20.79651678 46.86835599 -20.84472656 50.93560791 C-20.89493175 55.08472229 -20.95062293 59.23376259 -21.00585938 63.3828125 C-21.11345748 71.52598077 -21.2143919 79.66921186 -21.3125 87.8125 C-28.2425 87.8125 -35.1725 87.8125 -42.3125 87.8125 C-42.3125 58.7725 -42.3125 29.7325 -42.3125 -0.1875 C-35.3825 -0.1875 -28.4525 -0.1875 -21.3125 -0.1875 C-20.9825 2.1225 -20.6525 4.4325 -20.3125 6.8125 C-19.920625 6.049375 -19.52875 5.28625 -19.125 4.5 C-14.46163866 -2.41463924 -7.36694938 -2.64098185 0 0 Z " fill="#FF5858" transform="translate(372.3125,38.1875)"/>
<path d="M0 0 C6.6 0 13.2 0 20 0 C20 6.27 20 12.54 20 19 C21.98 19 23.96 19 26 19 C26 23.95 26 28.9 26 34 C24.02 34 22.04 34 20 34 C20.495 60.235 20.495 60.235 21 87 C22.65 87.33 24.3 87.66 26 88 C26 92.62 26 97.24 26 102 C19.54430991 104.1518967 12.60338296 105.71083581 5.9609375 103.2421875 C2.90751519 101.33191837 1.27475554 99.3033374 0 96 C-0.24050903 93.16522217 -0.24050903 93.16522217 -0.22705078 89.85449219 C-0.22689972 88.61350769 -0.22674866 87.37252319 -0.22659302 86.09393311 C-0.21638061 84.7449121 -0.20594864 83.39589273 -0.1953125 82.046875 C-0.19158049 80.6625387 -0.18873441 79.27819975 -0.18673706 77.89385986 C-0.17911534 74.2573309 -0.15947955 70.62096269 -0.1373291 66.98449707 C-0.11683909 63.27093683 -0.10772861 59.55735052 -0.09765625 55.84375 C-0.07623215 48.56242686 -0.04211401 41.28123599 0 34 C-2.97 34.495 -2.97 34.495 -6 35 C-6.82622671 29.39436958 -7.06795656 24.57710648 -6 19 C-4.02 19 -2.04 19 0 19 C0 12.73 0 6.46 0 0 Z " fill="#FE5757" transform="translate(227,23)"/>
<path d="M0 0 C6.93 0 13.86 0 21 0 C21 29.04 21 58.08 21 88 C14.07 88 7.14 88 0 88 C0 58.96 0 29.92 0 0 Z " fill="#FF5757" transform="translate(307,38)"/>
<path d="M0 0 C0.804375 0.144375 1.60875 0.28875 2.4375 0.4375 C4.57713577 3.64695365 4.69210906 4.50348353 4.7121582 8.19677734 C4.72169022 9.16142914 4.73122223 10.12608093 4.74104309 11.1199646 C4.74013168 12.16061066 4.73922028 13.20125671 4.73828125 14.2734375 C4.74256638 15.34494049 4.7468515 16.41644348 4.75126648 17.52041626 C4.75701248 19.78834323 4.75750807 22.05628864 4.75317383 24.32421875 C4.75001866 27.79198756 4.77345378 31.25889951 4.79882812 34.7265625 C4.80110158 36.92968642 4.8018044 39.13281264 4.80078125 41.3359375 C4.809991 42.3725351 4.81920074 43.40913269 4.82868958 44.47714233 C4.77169812 53.36108326 4.77169812 53.36108326 1.4375 57.4375 C-0.9375 57.1875 -0.9375 57.1875 -3.5625 56.4375 C-5.49286297 53.49697289 -5.81792401 51.11295337 -5.8371582 47.640625 C-5.84669022 46.6928418 -5.85622223 45.74505859 -5.86604309 44.76855469 C-5.86467598 43.24343262 -5.86467598 43.24343262 -5.86328125 41.6875 C-5.86756638 40.63723633 -5.8718515 39.58697266 -5.87626648 38.50488281 C-5.8820058 36.28581462 -5.88251297 34.06672762 -5.87817383 31.84765625 C-5.87501182 28.45019532 -5.89848576 25.05360341 -5.92382812 21.65625 C-5.92610092 19.5000011 -5.92680471 17.34374986 -5.92578125 15.1875 C-5.93959587 13.66237793 -5.93959587 13.66237793 -5.95368958 12.10644531 C-5.94746078 11.15866211 -5.94123199 10.21087891 -5.93481445 9.234375 C-5.93544388 8.40260742 -5.9360733 7.57083984 -5.9367218 6.71386719 C-5.30900695 2.89551807 -3.87019697 0.66076534 0 0 Z " fill="#F2F2F2" transform="translate(196.5625,53.5625)"/>
<path d="M0 0 C2.5 -0.3125 2.5 -0.3125 5 0 C7.53991222 2.53991222 7.25263677 3.43328134 7.25878906 6.95288086 C7.26509338 7.98412582 7.27139771 9.01537079 7.27789307 10.0778656 C7.2738446 11.19556839 7.26979614 12.31327118 7.265625 13.46484375 C7.26753845 14.60909317 7.2694519 15.75334259 7.27142334 16.93226624 C7.27278632 19.35580668 7.26908203 21.77935439 7.26074219 24.20288086 C7.2500543 27.91862364 7.26062889 31.63388182 7.2734375 35.34960938 C7.27211573 37.7005219 7.26955299 40.05143413 7.265625 42.40234375 C7.26967346 43.51802231 7.27372192 44.63370087 7.27789307 45.78318787 C7.27158875 46.81758499 7.26528442 47.85198212 7.25878906 48.91772461 C7.25640228 50.28434486 7.25640228 50.28434486 7.25396729 51.67857361 C7 54 7 54 5 57 C0.25 56.25 0.25 56.25 -2 54 C-2.25396729 51.84352112 -2.25396729 51.84352112 -2.25878906 49.13891602 C-2.26509338 48.1276918 -2.27139771 47.11646759 -2.27789307 46.07460022 C-2.2738446 44.97877121 -2.26979614 43.8829422 -2.265625 42.75390625 C-2.26753845 41.63185287 -2.2694519 40.5097995 -2.27142334 39.35374451 C-2.27278628 36.97728247 -2.26908229 34.60081302 -2.26074219 32.22436523 C-2.25005441 28.58104752 -2.26062892 24.93822406 -2.2734375 21.29492188 C-2.27211573 18.98958224 -2.26955297 16.68424292 -2.265625 14.37890625 C-2.26967346 13.28510147 -2.27372192 12.19129669 -2.27789307 11.06434631 C-2.27158875 10.04996994 -2.26528442 9.03559357 -2.25878906 7.99047852 C-2.25719788 7.09716324 -2.25560669 6.20384796 -2.25396729 5.28346252 C-2 3 -2 3 0 0 Z " fill="#FCFCFC" transform="translate(140,54)"/>
<path d="M0 0 C2.4375 0.875 2.4375 0.875 4.4375 3.875 C4.64607914 6.87390449 4.74150936 9.7776422 4.73828125 12.77734375 C4.74256638 13.65145401 4.7468515 14.52556427 4.75126648 15.42616272 C4.75700853 17.27457819 4.75751096 19.12301625 4.75317383 20.97143555 C4.75001574 23.79840697 4.77346755 26.62433001 4.79882812 29.45117188 C4.80110133 31.24739451 4.80180452 33.04361997 4.80078125 34.83984375 C4.809991 35.68473862 4.81920074 36.52963348 4.82868958 37.40013123 C4.78226632 43.29430894 4.78226632 43.29430894 2.91479492 46.43969727 C2.18353394 47.15017212 2.18353394 47.15017212 1.4375 47.875 C-0.9375 47.5625 -0.9375 47.5625 -3.5625 46.875 C-5.58788151 43.83692773 -5.81509698 43.23068826 -5.8371582 39.81835938 C-5.84669022 39.00741821 -5.85622223 38.19647705 -5.86604309 37.36096191 C-5.86513168 36.48903198 -5.86422028 35.61710205 -5.86328125 34.71875 C-5.86756638 33.82007202 -5.8718515 32.92139404 -5.87626648 31.9954834 C-5.88200843 30.09579308 -5.88251103 28.19608077 -5.87817383 26.29638672 C-5.87501196 23.38601319 -5.89848096 20.47665421 -5.92382812 17.56640625 C-5.9261009 15.72135545 -5.92680472 13.87630191 -5.92578125 12.03125 C-5.934991 11.15932007 -5.94420074 10.28739014 -5.95368958 9.38903809 C-5.94746078 8.57809692 -5.94123199 7.76715576 -5.93481445 6.93164062 C-5.93544388 6.21899048 -5.9360733 5.50634033 -5.9367218 4.77209473 C-5.23810673 1.23050798 -3.54710781 -0.17302965 0 0 Z " fill="#FFF7F7" transform="translate(409.5625,53.125)"/>
<path d="M0 0 C1.98 0 3.96 0 6 0 C6 17.82 6 35.64 6 54 C4.35 54 2.7 54 1 54 C0 53 0 53 -0.12025452 50.86766052 C-0.11803391 49.92834183 -0.11581329 48.98902313 -0.11352539 48.02124023 C-0.11344986 46.96021591 -0.11337433 45.89919159 -0.11329651 44.80601501 C-0.10813522 43.651866 -0.10297394 42.49771698 -0.09765625 41.30859375 C-0.0962413 40.13361832 -0.09482635 38.95864288 -0.09336853 37.74806213 C-0.08774992 33.97784936 -0.07519426 30.20769496 -0.0625 26.4375 C-0.0574874 23.88867273 -0.05292408 21.33984453 -0.04882812 18.79101562 C-0.03777444 12.52732367 -0.02101821 6.26366601 0 0 Z " fill="#FFF7F7" transform="translate(247,57)"/>
<path d="M0 0 C6.93 0 13.86 0 21 0 C21 4.62 21 9.24 21 14 C14.07 14 7.14 14 0 14 C0 9.38 0 4.76 0 0 Z " fill="#FF5757" transform="translate(307,18)"/>
<path d="M0 0 C3.22972438 0.90040801 4.88786005 2.99739336 6.93359375 5.5390625 C7.26359375 5.8690625 7.59359375 6.1990625 7.93359375 6.5390625 C8.44897403 10.91979491 8.18204361 13.09826436 5.99609375 16.9765625 C2.38964384 19.99420426 0.59390011 20.33789261 -3.9765625 19.98046875 C-6.06640625 19.5390625 -6.06640625 19.5390625 -8.56640625 18.1015625 C-10.77621568 14.32647139 -11.48847763 10.9029791 -11.06640625 6.5390625 C-8.97648412 1.40830367 -5.32068799 -0.38220443 0 0 Z " fill="#FF5B5B" transform="translate(451.06640625,106.4609375)"/>
<path d="M0 0 C2.42680653 3.64020979 2.5407023 6.69636146 2.8515625 10.9296875 C2.91532074 11.71586456 2.97907898 12.50204163 3.04476929 13.31204224 C3.1782169 14.98113789 3.30738726 16.65058018 3.43261719 18.3203125 C3.62173738 20.83167502 3.82529867 23.3415307 4.03125 25.8515625 C4.75359448 34.92445244 5.20273186 43.89344868 5 53 C2.03 53 -0.94 53 -4 53 C-4.12586756 45.69968129 -4.12586756 45.69968129 -3.52514648 42.36035156 C-2.92862798 38.54329871 -2.6891665 34.75157642 -2.5 30.8984375 C-2.41667439 29.34114542 -2.33334082 27.78385377 -2.25 26.2265625 C-2.12394043 23.79302186 -1.99920471 21.35941723 -1.875 18.92578125 C-1.75321127 16.56231873 -1.62676674 14.19913743 -1.5 11.8359375 C-1.44682617 10.74676529 -1.44682617 10.74676529 -1.39257812 9.6355896 C-1.21359178 6.31752224 -0.98842433 3.18457963 0 0 Z " fill="#F0F0F0" transform="translate(89,40)"/>
<path d="M0 0 C0.33 0 0.66 0 1 0 C1 34.65 1 69.3 1 105 C7.93 105 14.86 105 22 105 C22 105.33 22 105.66 22 106 C14.74 106 7.48 106 0 106 C-0.06058594 103.94136719 -0.12117187 101.88273437 -0.18359375 99.76171875 C-0.24617658 97.76602171 -0.30879126 95.77032553 -0.37231445 93.7746582 C-0.41560218 92.38864017 -0.45728164 91.00257094 -0.49731445 89.61645508 C-0.55516584 87.62308202 -0.61929776 85.62989435 -0.68359375 83.63671875 C-0.72025146 82.43748779 -0.75690918 81.23825684 -0.79467773 80.00268555 C-0.87733025 76.95005651 -0.87733025 76.95005651 -2 74 C-1.76516966 72.37602126 -1.52587987 70.75254149 -1.26220703 69.13299561 C-0.72582864 64.76967723 -0.90123207 60.36555422 -0.9375 55.9765625 C-0.94128662 54.91698334 -0.94507324 53.85740417 -0.94897461 52.76571655 C-0.96517508 48.26384564 -0.99306968 43.76206826 -1.02050781 39.26025391 C-1.09356815 26.13054293 -1.0165732 13.09518741 0 0 Z " fill="#D2D2D2" transform="translate(169,38)"/>
<path d="M0 0 C0.66 0 1.32 0 2 0 C2 11.88 2 23.76 2 36 C8.93 36 15.86 36 23 36 C23 36.33 23 36.66 23 37 C15.74 37 8.48 37 1 37 C0.93941406 34.94136719 0.87882813 32.88273437 0.81640625 30.76171875 C0.75382342 28.76602171 0.69120874 26.77032553 0.62768555 24.7746582 C0.58439782 23.38864017 0.54271836 22.00257094 0.50268555 20.61645508 C0.44483416 18.62308202 0.38070224 16.62989435 0.31640625 14.63671875 C0.27974854 13.43748779 0.24309082 12.23825684 0.20532227 11.00268555 C0.12266975 7.95005651 0.12266975 7.95005651 -1 5 C-0.5625 2.3125 -0.5625 2.3125 0 0 Z " fill="#BBBBBB" transform="translate(168,107)"/>
<path d="M0 0 C2.67927341 4.01891012 2.15601248 6.24161923 2 11 C1.01 11.33 0.02 11.66 -1 12 C-1.14285714 3.42857143 -1.14285714 3.42857143 0 0 Z " fill="#B6B6B6" transform="translate(89,40)"/>
</svg>
